<svg xmlns="http://www.w3.org/2000/svg" viewBox="0 0 64 64" role="img" aria-label="StatCat">
  <defs>
    <linearGradient id="g" x1="8" y1="8" x2="56" y2="56" gradientUnits="userSpaceOnUse">
      <stop offset="0" stop-color="#811b21"/>
      <stop offset="0.55" stop-color="#a61e25"/>
      <stop offset="1" stop-color="#f97316"/>
    </linearGradient>
  </defs>
  <rect x="4" y="4" width="56" height="56" rx="16" fill="#0d1117"/>
  <rect x="6" y="6" width="52" height="52" rx="14" fill="none" stroke="url(#g)" stroke-width="2"/>
  <path d="M20 23c0-5.2 4.2-9 10.4-9 3.7 0 7 .9 10 3l-2.8 4.1c-2.2-1.4-4.3-2.1-6.8-2.1-2.9 0-4.8 1.4-4.8 3.5 0 2.3 2 3 5.5 3.8 4.9 1.1 10.1 2.5 10.1 8.8 0 5.7-4.5 9.2-11.2 9.2-4.8 0-8.9-1.5-12-4.4l3.1-3.9c2.5 2.2 5.4 3.3 8.8 3.3 3.2 0 5.2-1.3 5.2-3.6 0-2.2-1.8-2.9-5.9-3.8-4.7-1-9.6-2.4-9.6-8.9z" fill="#f6f2ea"/>
</svg>
